<svg id="Group_1" data-name="Group 1" xmlns="http://www.w3.org/2000/svg" width="202.54" height="168.01" viewBox="0 0 202.54 168.01"><defs><style>.cls-1{fill:#fdb32d;}</style></defs><title>BOT-LOGO</title><polygon points="202.54 0 141.28 51.02 126.01 15.6 101.26 15.57 76.54 15.6 61.3 51.06 0 0 38.62 103.85 11.27 167.51 24.43 167.61 24.43 167.61 74.02 168.01 93.47 116.78 109.08 116.78 128.53 168.01 177.79 167.61 177.79 167.61 191.53 167.5 163.99 103.66 202.54 0"/><polygon class="cls-1" points="69.2 160.97 85.79 117.28 32.42 160.67 69.2 160.97"/><polygon class="cls-1" points="59.6 58.76 15.73 22.21 43.15 95.93 59.6 58.76"/><polygon class="cls-1" points="133.34 160.97 170.13 160.67 116.75 117.28 133.34 160.97"/><polygon class="cls-1" points="186.81 22.21 142.94 58.76 159.4 95.93 186.81 22.21"/><path class="cls-1" d="M130.66,128.17h-3.94c-2.37,6.18-4.7,12.28-7.06,18.44h22l-7.07-18.44Z" transform="translate(-29.39 -36.83)"/><polygon class="cls-1" points="101.27 22.57 81.14 22.6 20.29 163.6 83.2 112.71 101.27 67.9 119.34 112.71 182.25 163.6 121.4 22.6 101.27 22.57"/></svg>